<svg xmlns="http://www.w3.org/2000/svg" width="69.867" height="62.796" viewBox="0 0 69.867 62.796">
  <g id="Building_Materials" data-name="Building Materials" transform="translate(1 1.123)">
    <path id="Path_6212" data-name="Path 6212" d="M1017.151-166.49l51.938,25.748,1.332-.422-.982-12.49-6.775-3.691-.99-13.458-51.9-26.2v13.183l7.377,3.621Z" transform="translate(-1010.03 201.186)" fill="#d5e5e0"/>
    <g id="Group_12" data-name="Group 12" transform="translate(0 0)">
      <path id="Path_572" data-name="Path 572" d="M8441.55,3550l-8.65,4.156v12.975l8.65-4.2Z" transform="translate(-8373.491 -3506.714)" fill="#b0ccc2"/>
      <path id="Path_6213" data-name="Path 6213" d="M8442.054,3549.543l-9.154,4.376v12.038l8.65-3.9Z" transform="translate(-8381.431 -3523.688)" fill="#b0ccc2"/>
      <path id="Path_573" data-name="Path 573" d="M8432.231,3544.806" transform="translate(-8380.608 -3514.662)" fill="none" stroke="#0c482f" stroke-width="1" stroke-dasharray="2 2"/>
      <path id="Path_632" data-name="Path 632" d="M845.594,45.95l-52-25.95-8.271,4.332V37.3l51.43,25.95,8.843-4.454Z" transform="translate(-785.32 -20)" fill="none" stroke="#0c482f" stroke-width="2"/>
      <path id="Path_633" data-name="Path 633" d="M846.735,62.249l7.593,4.391V79.471l-8.589,4.469L793.779,57.99V45.114" transform="translate(-786.462 -23.39)" fill="none" stroke="#0c482f" stroke-width="2"/>
      <path id="Path_634" data-name="Path 634" d="M833.722,40l-8.192,4.105V57.3" transform="translate(-791.613 -22.7)" fill="none" stroke="#0c482f" stroke-width="2"/>
      <path id="Path_635" data-name="Path 635" d="M833.722,40l-8.192,4.573V57.3" transform="translate(-808.048 -31.35)" fill="none" stroke="#0c482f" stroke-width="2"/>
      <path id="Path_636" data-name="Path 636" d="M814,54.924V67.965" transform="translate(-789.192 -24.715)" fill="none" stroke="#0c482f" stroke-width="2"/>
      <path id="Path_637" data-name="Path 637" d="M814,54.924V67.965" transform="translate(-771.892 -16.064)" fill="none" stroke="#0c482f" stroke-width="2"/>
    </g>
  </g>
</svg>
