<svg xmlns="http://www.w3.org/2000/svg" width="51.83" height="64.461" viewBox="0 0 51.83 64.461">
  <g id="Plumbing" transform="translate(-20.954 -10.462)">
    <path id="Path_6221" data-name="Path 6221" d="M1238.888-371.79a3.168,3.168,0,0,0,2.034,4.114c3.09,1.062,5.431-2.188,5.431-2.188h0a15.617,15.617,0,0,0-2.7,8.1c-.281,4.972,0,22.277,0,22.277s-7.841-1.867-7.841-4.146.791-20.31.791-20.31Z" transform="translate(-1214.046 413.462)" fill="#d5e5e0"/>
    <path id="Path_6220" data-name="Path 6220" d="M1243.477-339.54c.2.059,0-23.647,0-23.647a7.551,7.551,0,0,1,3.46-7.09c4.082-2.556,8.177-4.525,8.177-4.525l11.318-5.641,18.612-9.478s1.546,7.643-2.245,9.478-16.367,7.468-16.367,7.468a7.1,7.1,0,0,1-4.04,5.26c-3.637,1.689-8.528,4.528-8.528,4.528h-2.983v18.975S1248.822-339.331,1243.477-339.54Z" transform="translate(-1214.046 413.462)" fill="#b0ccc2"/>
    <path id="Path_625" data-name="Path 625" d="M48.7,27.708s10.267-5.276,16.034-8.028,11,9.664,2.36,13.959-14.7,7.282-14.7,7.282" fill="none" stroke="#0c482f" stroke-width="2"/>
    <path id="Union_2" data-name="Union 2" d="M28.165,38.184A10.255,10.255,0,0,1,34.683,29.9l4.671-2.386a8.466,8.466,0,0,1,4.5-1.308c5.105,0,9.243,4.626,9.243,10.332a10.311,10.311,0,0,1-6.25,9.777l-5.262,2.659a8.426,8.426,0,0,1-4.256,1.158" fill="none" stroke="#0c482f" stroke-width="2"/>
    <ellipse id="Ellipse_464" data-name="Ellipse 464" cx="11.788" cy="5.894" rx="11.788" ry="5.894" transform="translate(28.881 10.462)" fill="#fff"/>
    <ellipse id="Ellipse_465" data-name="Ellipse 465" cx="10.788" cy="4.894" rx="10.788" ry="4.894" transform="translate(29.881 11.462)" fill="none" stroke="#0c482f" stroke-width="2"/>
    <path id="Path_627" data-name="Path 627" d="M40.668,21.434v9.028" fill="#fff" stroke="#0c482f" stroke-width="2"/>
    <path id="Path_628" data-name="Path 628" d="M31.481,35.916C22.448,40.962,21.954,46.031,21.954,54V69.085c0,4.558,7.221,4.837,7.221,4.837s7.16.139,7.16-5.5.051-11.99,0-14.418-.108-4.794,3.715-7.585S40.514,30.87,31.481,35.916Z" fill="none" stroke="#0c482f" stroke-width="2"/>
  </g>
</svg>
