<svg width="48" height="48" viewBox="0 0 48 48" fill="none" xmlns="http://www.w3.org/2000/svg">
<path fill-rule="evenodd" clip-rule="evenodd" d="M15.3232 10.034C14.918 9.80307 14.4796 9.62362 14.017 9.50455V8H11.3447V9.50455C10.8543 9.63077 10.3911 9.82485 9.9658 10.0762L8.75319 8.86356L6.86356 10.7532L8.07617 11.9658C7.82485 12.3911 7.63077 12.8543 7.50455 13.3447H6V16.017H7.50455C7.58146 16.3158 7.68356 16.6045 7.80845 16.8807L6.48563 18.2035L8.37526 20.0932L9.49544 18.973C10.0412 19.3786 10.6669 19.6827 11.3447 19.8572V21.3617H14.017V19.8572C14.6675 19.6897 15.2701 19.4029 15.7999 19.0215L16.8716 20.0932L18.7612 18.2035L17.517 16.9592C17.6585 16.6594 17.7729 16.3443 17.8572 16.017H19.3617V13.3447H17.8572C17.7238 12.8266 17.5147 12.3389 17.2424 11.8941L18.3833 10.7532L16.4937 8.86356L15.3232 10.034ZM12.6809 17.3532C14.1567 17.3532 15.3532 16.1567 15.3532 14.6809C15.3532 13.205 14.1567 12.0085 12.6809 12.0085C11.205 12.0085 10.0085 13.205 10.0085 14.6809C10.0085 16.1567 11.205 17.3532 12.6809 17.3532Z" fill="black"/>
<path d="M14 40L28 26H36L42 20L38 16L34 20H31L30 19V16L34 12L30 8L24 14V22L10 36L14 40Z" stroke="black" stroke-width="2"/>
</svg>
